%FSLAX45Y45*%
G04 Gerber Fmt 4.5, Leading zero omitted, Abs format (unit mm)*
G04 Created by KiCad (PCBNEW (6.0.0)) date 2022-07-14 20:59:10*
%MOMM*%
%LPD*%
G01*
G04 APERTURE LIST*
%TA.AperFunction,Profile*%
%ADD10C,0.100000*%
%TD*%
%ADD11C,0.200000*%
%ADD12C,0.250000*%
%ADD13C,0.300000*%
%ADD14C,0.400000*%
%ADD15C,0.500000*%
%ADD16C,0.600000*%
G04 APERTURE END LIST*
D10*
X24500000Y-12450000D02*
X24500000Y-17028600D01*
X15700000Y-12250000D02*
X24300000Y-12250000D01*
X24500000Y-12450000D02*
G75*
G03*
X24300000Y-12250000I-200000J0D01*
G01*
X15700000Y-12250000D02*
G75*
G03*
X15500000Y-12450000I0J-200000D01*
G01*
X15500000Y-12450000D02*
X15500000Y-17550000D01*
X23778600Y-17750000D02*
G75*
G03*
X24500000Y-17028600I0J721400D01*
G01*
X15700000Y-17750000D02*
X23778600Y-17750000D01*
X15500000Y-17550000D02*
G75*
G03*
X15700000Y-17750000I200000J0D01*
G01*
D11*
X23678600Y-12571400D02*
X23878600Y-12771400D01*
X23878600Y-12571400D02*
X23678600Y-12771400D01*
D12*
X23903600Y-13342900D02*
G75*
G03*
X23903600Y-13342900I-125000J0D01*
G01*
D13*
X23778600Y-13939300D02*
X23778600Y-14239300D01*
X23628600Y-14089300D02*
X23928600Y-14089300D01*
D14*
X23920023Y-15077123D02*
X23920023Y-14794277D01*
X23637177Y-14794277D01*
X23637177Y-15077123D01*
X23920023Y-15077123D01*
D15*
X23778600Y-16157100D02*
X24028600Y-15907100D01*
X23778600Y-15657100D01*
X23528600Y-15907100D01*
X23778600Y-16157100D01*
D16*
X23478600Y-16728600D02*
X24078600Y-17328600D01*
X24078600Y-16728600D02*
X23478600Y-17328600D01*
X24078600Y-17028600D02*
G75*
G03*
X24078600Y-17028600I-300000J0D01*
G01*
D11*
X15752619Y-18065476D02*
X15752619Y-17865476D01*
X15800238Y-17865476D01*
X15828809Y-17875000D01*
X15847857Y-17894048D01*
X15857381Y-17913095D01*
X15866905Y-17951190D01*
X15866905Y-17979762D01*
X15857381Y-18017857D01*
X15847857Y-18036905D01*
X15828809Y-18055952D01*
X15800238Y-18065476D01*
X15752619Y-18065476D01*
X15952619Y-18065476D02*
X15952619Y-17932143D01*
X15952619Y-17970238D02*
X15962143Y-17951190D01*
X15971667Y-17941667D01*
X15990714Y-17932143D01*
X16009762Y-17932143D01*
X16076428Y-18065476D02*
X16076428Y-17932143D01*
X16076428Y-17865476D02*
X16066905Y-17875000D01*
X16076428Y-17884524D01*
X16085952Y-17875000D01*
X16076428Y-17865476D01*
X16076428Y-17884524D01*
X16200238Y-18065476D02*
X16181190Y-18055952D01*
X16171667Y-18036905D01*
X16171667Y-17865476D01*
X16305000Y-18065476D02*
X16285952Y-18055952D01*
X16276428Y-18036905D01*
X16276428Y-17865476D01*
X16533571Y-18065476D02*
X16533571Y-17865476D01*
X16600238Y-18008333D01*
X16666905Y-17865476D01*
X16666905Y-18065476D01*
X16847857Y-18065476D02*
X16847857Y-17960714D01*
X16838333Y-17941667D01*
X16819286Y-17932143D01*
X16781190Y-17932143D01*
X16762143Y-17941667D01*
X16847857Y-18055952D02*
X16828810Y-18065476D01*
X16781190Y-18065476D01*
X16762143Y-18055952D01*
X16752619Y-18036905D01*
X16752619Y-18017857D01*
X16762143Y-17998810D01*
X16781190Y-17989286D01*
X16828810Y-17989286D01*
X16847857Y-17979762D01*
X16943095Y-17932143D02*
X16943095Y-18132143D01*
X16943095Y-17941667D02*
X16962143Y-17932143D01*
X17000238Y-17932143D01*
X17019286Y-17941667D01*
X17028810Y-17951190D01*
X17038333Y-17970238D01*
X17038333Y-18027381D01*
X17028810Y-18046429D01*
X17019286Y-18055952D01*
X17000238Y-18065476D01*
X16962143Y-18065476D01*
X16943095Y-18055952D01*
X17124048Y-18046429D02*
X17133571Y-18055952D01*
X17124048Y-18065476D01*
X17114524Y-18055952D01*
X17124048Y-18046429D01*
X17124048Y-18065476D01*
X17124048Y-17941667D02*
X17133571Y-17951190D01*
X17124048Y-17960714D01*
X17114524Y-17951190D01*
X17124048Y-17941667D01*
X17124048Y-17960714D01*
X15295000Y-18295000D02*
X15495000Y-18495000D01*
X15495000Y-18295000D02*
X15295000Y-18495000D01*
X15743095Y-18304524D02*
X15752619Y-18295000D01*
X15771667Y-18285476D01*
X15819286Y-18285476D01*
X15838333Y-18295000D01*
X15847857Y-18304524D01*
X15857381Y-18323571D01*
X15857381Y-18342619D01*
X15847857Y-18371190D01*
X15733571Y-18485476D01*
X15857381Y-18485476D01*
X15943095Y-18466429D02*
X15952619Y-18475952D01*
X15943095Y-18485476D01*
X15933571Y-18475952D01*
X15943095Y-18466429D01*
X15943095Y-18485476D01*
X16076428Y-18285476D02*
X16095476Y-18285476D01*
X16114524Y-18295000D01*
X16124048Y-18304524D01*
X16133571Y-18323571D01*
X16143095Y-18361667D01*
X16143095Y-18409286D01*
X16133571Y-18447381D01*
X16124048Y-18466429D01*
X16114524Y-18475952D01*
X16095476Y-18485476D01*
X16076428Y-18485476D01*
X16057381Y-18475952D01*
X16047857Y-18466429D01*
X16038333Y-18447381D01*
X16028809Y-18409286D01*
X16028809Y-18361667D01*
X16038333Y-18323571D01*
X16047857Y-18304524D01*
X16057381Y-18295000D01*
X16076428Y-18285476D01*
X16266905Y-18285476D02*
X16285952Y-18285476D01*
X16305000Y-18295000D01*
X16314524Y-18304524D01*
X16324048Y-18323571D01*
X16333571Y-18361667D01*
X16333571Y-18409286D01*
X16324048Y-18447381D01*
X16314524Y-18466429D01*
X16305000Y-18475952D01*
X16285952Y-18485476D01*
X16266905Y-18485476D01*
X16247857Y-18475952D01*
X16238333Y-18466429D01*
X16228809Y-18447381D01*
X16219286Y-18409286D01*
X16219286Y-18361667D01*
X16228809Y-18323571D01*
X16238333Y-18304524D01*
X16247857Y-18295000D01*
X16266905Y-18285476D01*
X16457381Y-18285476D02*
X16476428Y-18285476D01*
X16495476Y-18295000D01*
X16505000Y-18304524D01*
X16514524Y-18323571D01*
X16524048Y-18361667D01*
X16524048Y-18409286D01*
X16514524Y-18447381D01*
X16505000Y-18466429D01*
X16495476Y-18475952D01*
X16476428Y-18485476D01*
X16457381Y-18485476D01*
X16438333Y-18475952D01*
X16428809Y-18466429D01*
X16419286Y-18447381D01*
X16409762Y-18409286D01*
X16409762Y-18361667D01*
X16419286Y-18323571D01*
X16428809Y-18304524D01*
X16438333Y-18295000D01*
X16457381Y-18285476D01*
X16609762Y-18485476D02*
X16609762Y-18352143D01*
X16609762Y-18371190D02*
X16619286Y-18361667D01*
X16638333Y-18352143D01*
X16666905Y-18352143D01*
X16685952Y-18361667D01*
X16695476Y-18380714D01*
X16695476Y-18485476D01*
X16695476Y-18380714D02*
X16705000Y-18361667D01*
X16724048Y-18352143D01*
X16752619Y-18352143D01*
X16771667Y-18361667D01*
X16781190Y-18380714D01*
X16781190Y-18485476D01*
X16876429Y-18485476D02*
X16876429Y-18352143D01*
X16876429Y-18371190D02*
X16885952Y-18361667D01*
X16905000Y-18352143D01*
X16933571Y-18352143D01*
X16952619Y-18361667D01*
X16962143Y-18380714D01*
X16962143Y-18485476D01*
X16962143Y-18380714D02*
X16971667Y-18361667D01*
X16990714Y-18352143D01*
X17019286Y-18352143D01*
X17038333Y-18361667D01*
X17047857Y-18380714D01*
X17047857Y-18485476D01*
X17438333Y-18275952D02*
X17266905Y-18533095D01*
X17695476Y-18285476D02*
X17714524Y-18285476D01*
X17733571Y-18295000D01*
X17743095Y-18304524D01*
X17752619Y-18323571D01*
X17762143Y-18361667D01*
X17762143Y-18409286D01*
X17752619Y-18447381D01*
X17743095Y-18466429D01*
X17733571Y-18475952D01*
X17714524Y-18485476D01*
X17695476Y-18485476D01*
X17676429Y-18475952D01*
X17666905Y-18466429D01*
X17657381Y-18447381D01*
X17647857Y-18409286D01*
X17647857Y-18361667D01*
X17657381Y-18323571D01*
X17666905Y-18304524D01*
X17676429Y-18295000D01*
X17695476Y-18285476D01*
X17847857Y-18466429D02*
X17857381Y-18475952D01*
X17847857Y-18485476D01*
X17838333Y-18475952D01*
X17847857Y-18466429D01*
X17847857Y-18485476D01*
X17981190Y-18285476D02*
X18000238Y-18285476D01*
X18019286Y-18295000D01*
X18028810Y-18304524D01*
X18038333Y-18323571D01*
X18047857Y-18361667D01*
X18047857Y-18409286D01*
X18038333Y-18447381D01*
X18028810Y-18466429D01*
X18019286Y-18475952D01*
X18000238Y-18485476D01*
X17981190Y-18485476D01*
X17962143Y-18475952D01*
X17952619Y-18466429D01*
X17943095Y-18447381D01*
X17933571Y-18409286D01*
X17933571Y-18361667D01*
X17943095Y-18323571D01*
X17952619Y-18304524D01*
X17962143Y-18295000D01*
X17981190Y-18285476D01*
X18114524Y-18285476D02*
X18247857Y-18285476D01*
X18162143Y-18485476D01*
X18352619Y-18371190D02*
X18333571Y-18361667D01*
X18324048Y-18352143D01*
X18314524Y-18333095D01*
X18314524Y-18323571D01*
X18324048Y-18304524D01*
X18333571Y-18295000D01*
X18352619Y-18285476D01*
X18390714Y-18285476D01*
X18409762Y-18295000D01*
X18419286Y-18304524D01*
X18428810Y-18323571D01*
X18428810Y-18333095D01*
X18419286Y-18352143D01*
X18409762Y-18361667D01*
X18390714Y-18371190D01*
X18352619Y-18371190D01*
X18333571Y-18380714D01*
X18324048Y-18390238D01*
X18314524Y-18409286D01*
X18314524Y-18447381D01*
X18324048Y-18466429D01*
X18333571Y-18475952D01*
X18352619Y-18485476D01*
X18390714Y-18485476D01*
X18409762Y-18475952D01*
X18419286Y-18466429D01*
X18428810Y-18447381D01*
X18428810Y-18409286D01*
X18419286Y-18390238D01*
X18409762Y-18380714D01*
X18390714Y-18371190D01*
X18495476Y-18285476D02*
X18628810Y-18285476D01*
X18543095Y-18485476D01*
X18695476Y-18285476D02*
X18695476Y-18323571D01*
X18771667Y-18285476D02*
X18771667Y-18323571D01*
X19066905Y-18561667D02*
X19057381Y-18552143D01*
X19038333Y-18523571D01*
X19028810Y-18504524D01*
X19019286Y-18475952D01*
X19009762Y-18428333D01*
X19009762Y-18390238D01*
X19019286Y-18342619D01*
X19028810Y-18314048D01*
X19038333Y-18295000D01*
X19057381Y-18266429D01*
X19066905Y-18256905D01*
X19247857Y-18485476D02*
X19133571Y-18485476D01*
X19190714Y-18485476D02*
X19190714Y-18285476D01*
X19171667Y-18314048D01*
X19152619Y-18333095D01*
X19133571Y-18342619D01*
X19485952Y-18485476D02*
X19485952Y-18285476D01*
X19571667Y-18485476D02*
X19571667Y-18380714D01*
X19562143Y-18361667D01*
X19543095Y-18352143D01*
X19514524Y-18352143D01*
X19495476Y-18361667D01*
X19485952Y-18371190D01*
X19695476Y-18485476D02*
X19676429Y-18475952D01*
X19666905Y-18466429D01*
X19657381Y-18447381D01*
X19657381Y-18390238D01*
X19666905Y-18371190D01*
X19676429Y-18361667D01*
X19695476Y-18352143D01*
X19724048Y-18352143D01*
X19743095Y-18361667D01*
X19752619Y-18371190D01*
X19762143Y-18390238D01*
X19762143Y-18447381D01*
X19752619Y-18466429D01*
X19743095Y-18475952D01*
X19724048Y-18485476D01*
X19695476Y-18485476D01*
X19876429Y-18485476D02*
X19857381Y-18475952D01*
X19847857Y-18456905D01*
X19847857Y-18285476D01*
X20028810Y-18475952D02*
X20009762Y-18485476D01*
X19971667Y-18485476D01*
X19952619Y-18475952D01*
X19943095Y-18456905D01*
X19943095Y-18380714D01*
X19952619Y-18361667D01*
X19971667Y-18352143D01*
X20009762Y-18352143D01*
X20028810Y-18361667D01*
X20038333Y-18380714D01*
X20038333Y-18399762D01*
X19943095Y-18418810D01*
X20105000Y-18561667D02*
X20114524Y-18552143D01*
X20133571Y-18523571D01*
X20143095Y-18504524D01*
X20152619Y-18475952D01*
X20162143Y-18428333D01*
X20162143Y-18390238D01*
X20152619Y-18342619D01*
X20143095Y-18314048D01*
X20133571Y-18295000D01*
X20114524Y-18266429D01*
X20105000Y-18256905D01*
X15495000Y-18715000D02*
G75*
G03*
X15495000Y-18715000I-100000J0D01*
G01*
X15743095Y-18624524D02*
X15752619Y-18615000D01*
X15771667Y-18605476D01*
X15819286Y-18605476D01*
X15838333Y-18615000D01*
X15847857Y-18624524D01*
X15857381Y-18643571D01*
X15857381Y-18662619D01*
X15847857Y-18691190D01*
X15733571Y-18805476D01*
X15857381Y-18805476D01*
X15943095Y-18786429D02*
X15952619Y-18795952D01*
X15943095Y-18805476D01*
X15933571Y-18795952D01*
X15943095Y-18786429D01*
X15943095Y-18805476D01*
X16133571Y-18605476D02*
X16038333Y-18605476D01*
X16028809Y-18700714D01*
X16038333Y-18691190D01*
X16057381Y-18681667D01*
X16105000Y-18681667D01*
X16124048Y-18691190D01*
X16133571Y-18700714D01*
X16143095Y-18719762D01*
X16143095Y-18767381D01*
X16133571Y-18786429D01*
X16124048Y-18795952D01*
X16105000Y-18805476D01*
X16057381Y-18805476D01*
X16038333Y-18795952D01*
X16028809Y-18786429D01*
X16266905Y-18605476D02*
X16285952Y-18605476D01*
X16305000Y-18615000D01*
X16314524Y-18624524D01*
X16324048Y-18643571D01*
X16333571Y-18681667D01*
X16333571Y-18729286D01*
X16324048Y-18767381D01*
X16314524Y-18786429D01*
X16305000Y-18795952D01*
X16285952Y-18805476D01*
X16266905Y-18805476D01*
X16247857Y-18795952D01*
X16238333Y-18786429D01*
X16228809Y-18767381D01*
X16219286Y-18729286D01*
X16219286Y-18681667D01*
X16228809Y-18643571D01*
X16238333Y-18624524D01*
X16247857Y-18615000D01*
X16266905Y-18605476D01*
X16457381Y-18605476D02*
X16476428Y-18605476D01*
X16495476Y-18615000D01*
X16505000Y-18624524D01*
X16514524Y-18643571D01*
X16524048Y-18681667D01*
X16524048Y-18729286D01*
X16514524Y-18767381D01*
X16505000Y-18786429D01*
X16495476Y-18795952D01*
X16476428Y-18805476D01*
X16457381Y-18805476D01*
X16438333Y-18795952D01*
X16428809Y-18786429D01*
X16419286Y-18767381D01*
X16409762Y-18729286D01*
X16409762Y-18681667D01*
X16419286Y-18643571D01*
X16428809Y-18624524D01*
X16438333Y-18615000D01*
X16457381Y-18605476D01*
X16609762Y-18805476D02*
X16609762Y-18672143D01*
X16609762Y-18691190D02*
X16619286Y-18681667D01*
X16638333Y-18672143D01*
X16666905Y-18672143D01*
X16685952Y-18681667D01*
X16695476Y-18700714D01*
X16695476Y-18805476D01*
X16695476Y-18700714D02*
X16705000Y-18681667D01*
X16724048Y-18672143D01*
X16752619Y-18672143D01*
X16771667Y-18681667D01*
X16781190Y-18700714D01*
X16781190Y-18805476D01*
X16876429Y-18805476D02*
X16876429Y-18672143D01*
X16876429Y-18691190D02*
X16885952Y-18681667D01*
X16905000Y-18672143D01*
X16933571Y-18672143D01*
X16952619Y-18681667D01*
X16962143Y-18700714D01*
X16962143Y-18805476D01*
X16962143Y-18700714D02*
X16971667Y-18681667D01*
X16990714Y-18672143D01*
X17019286Y-18672143D01*
X17038333Y-18681667D01*
X17047857Y-18700714D01*
X17047857Y-18805476D01*
X17438333Y-18595952D02*
X17266905Y-18853095D01*
X17695476Y-18605476D02*
X17714524Y-18605476D01*
X17733571Y-18615000D01*
X17743095Y-18624524D01*
X17752619Y-18643571D01*
X17762143Y-18681667D01*
X17762143Y-18729286D01*
X17752619Y-18767381D01*
X17743095Y-18786429D01*
X17733571Y-18795952D01*
X17714524Y-18805476D01*
X17695476Y-18805476D01*
X17676429Y-18795952D01*
X17666905Y-18786429D01*
X17657381Y-18767381D01*
X17647857Y-18729286D01*
X17647857Y-18681667D01*
X17657381Y-18643571D01*
X17666905Y-18624524D01*
X17676429Y-18615000D01*
X17695476Y-18605476D01*
X17847857Y-18786429D02*
X17857381Y-18795952D01*
X17847857Y-18805476D01*
X17838333Y-18795952D01*
X17847857Y-18786429D01*
X17847857Y-18805476D01*
X17981190Y-18605476D02*
X18000238Y-18605476D01*
X18019286Y-18615000D01*
X18028810Y-18624524D01*
X18038333Y-18643571D01*
X18047857Y-18681667D01*
X18047857Y-18729286D01*
X18038333Y-18767381D01*
X18028810Y-18786429D01*
X18019286Y-18795952D01*
X18000238Y-18805476D01*
X17981190Y-18805476D01*
X17962143Y-18795952D01*
X17952619Y-18786429D01*
X17943095Y-18767381D01*
X17933571Y-18729286D01*
X17933571Y-18681667D01*
X17943095Y-18643571D01*
X17952619Y-18624524D01*
X17962143Y-18615000D01*
X17981190Y-18605476D01*
X18143095Y-18805476D02*
X18181190Y-18805476D01*
X18200238Y-18795952D01*
X18209762Y-18786429D01*
X18228810Y-18757857D01*
X18238333Y-18719762D01*
X18238333Y-18643571D01*
X18228810Y-18624524D01*
X18219286Y-18615000D01*
X18200238Y-18605476D01*
X18162143Y-18605476D01*
X18143095Y-18615000D01*
X18133571Y-18624524D01*
X18124048Y-18643571D01*
X18124048Y-18691190D01*
X18133571Y-18710238D01*
X18143095Y-18719762D01*
X18162143Y-18729286D01*
X18200238Y-18729286D01*
X18219286Y-18719762D01*
X18228810Y-18710238D01*
X18238333Y-18691190D01*
X18352619Y-18691190D02*
X18333571Y-18681667D01*
X18324048Y-18672143D01*
X18314524Y-18653095D01*
X18314524Y-18643571D01*
X18324048Y-18624524D01*
X18333571Y-18615000D01*
X18352619Y-18605476D01*
X18390714Y-18605476D01*
X18409762Y-18615000D01*
X18419286Y-18624524D01*
X18428810Y-18643571D01*
X18428810Y-18653095D01*
X18419286Y-18672143D01*
X18409762Y-18681667D01*
X18390714Y-18691190D01*
X18352619Y-18691190D01*
X18333571Y-18700714D01*
X18324048Y-18710238D01*
X18314524Y-18729286D01*
X18314524Y-18767381D01*
X18324048Y-18786429D01*
X18333571Y-18795952D01*
X18352619Y-18805476D01*
X18390714Y-18805476D01*
X18409762Y-18795952D01*
X18419286Y-18786429D01*
X18428810Y-18767381D01*
X18428810Y-18729286D01*
X18419286Y-18710238D01*
X18409762Y-18700714D01*
X18390714Y-18691190D01*
X18600238Y-18672143D02*
X18600238Y-18805476D01*
X18552619Y-18595952D02*
X18505000Y-18738810D01*
X18628810Y-18738810D01*
X18695476Y-18605476D02*
X18695476Y-18643571D01*
X18771667Y-18605476D02*
X18771667Y-18643571D01*
X19066905Y-18881667D02*
X19057381Y-18872143D01*
X19038333Y-18843571D01*
X19028810Y-18824524D01*
X19019286Y-18795952D01*
X19009762Y-18748333D01*
X19009762Y-18710238D01*
X19019286Y-18662619D01*
X19028810Y-18634048D01*
X19038333Y-18615000D01*
X19057381Y-18586429D01*
X19066905Y-18576905D01*
X19247857Y-18805476D02*
X19133571Y-18805476D01*
X19190714Y-18805476D02*
X19190714Y-18605476D01*
X19171667Y-18634048D01*
X19152619Y-18653095D01*
X19133571Y-18662619D01*
X19485952Y-18805476D02*
X19485952Y-18605476D01*
X19571667Y-18805476D02*
X19571667Y-18700714D01*
X19562143Y-18681667D01*
X19543095Y-18672143D01*
X19514524Y-18672143D01*
X19495476Y-18681667D01*
X19485952Y-18691190D01*
X19695476Y-18805476D02*
X19676429Y-18795952D01*
X19666905Y-18786429D01*
X19657381Y-18767381D01*
X19657381Y-18710238D01*
X19666905Y-18691190D01*
X19676429Y-18681667D01*
X19695476Y-18672143D01*
X19724048Y-18672143D01*
X19743095Y-18681667D01*
X19752619Y-18691190D01*
X19762143Y-18710238D01*
X19762143Y-18767381D01*
X19752619Y-18786429D01*
X19743095Y-18795952D01*
X19724048Y-18805476D01*
X19695476Y-18805476D01*
X19876429Y-18805476D02*
X19857381Y-18795952D01*
X19847857Y-18776905D01*
X19847857Y-18605476D01*
X20028810Y-18795952D02*
X20009762Y-18805476D01*
X19971667Y-18805476D01*
X19952619Y-18795952D01*
X19943095Y-18776905D01*
X19943095Y-18700714D01*
X19952619Y-18681667D01*
X19971667Y-18672143D01*
X20009762Y-18672143D01*
X20028810Y-18681667D01*
X20038333Y-18700714D01*
X20038333Y-18719762D01*
X19943095Y-18738810D01*
X20105000Y-18881667D02*
X20114524Y-18872143D01*
X20133571Y-18843571D01*
X20143095Y-18824524D01*
X20152619Y-18795952D01*
X20162143Y-18748333D01*
X20162143Y-18710238D01*
X20152619Y-18662619D01*
X20143095Y-18634048D01*
X20133571Y-18615000D01*
X20114524Y-18586429D01*
X20105000Y-18576905D01*
X15395000Y-18935000D02*
X15395000Y-19135000D01*
X15295000Y-19035000D02*
X15495000Y-19035000D01*
X15733571Y-18925476D02*
X15857381Y-18925476D01*
X15790714Y-19001667D01*
X15819286Y-19001667D01*
X15838333Y-19011190D01*
X15847857Y-19020714D01*
X15857381Y-19039762D01*
X15857381Y-19087381D01*
X15847857Y-19106429D01*
X15838333Y-19115952D01*
X15819286Y-19125476D01*
X15762143Y-19125476D01*
X15743095Y-19115952D01*
X15733571Y-19106429D01*
X15943095Y-19106429D02*
X15952619Y-19115952D01*
X15943095Y-19125476D01*
X15933571Y-19115952D01*
X15943095Y-19106429D01*
X15943095Y-19125476D01*
X16076428Y-18925476D02*
X16095476Y-18925476D01*
X16114524Y-18935000D01*
X16124048Y-18944524D01*
X16133571Y-18963571D01*
X16143095Y-19001667D01*
X16143095Y-19049286D01*
X16133571Y-19087381D01*
X16124048Y-19106429D01*
X16114524Y-19115952D01*
X16095476Y-19125476D01*
X16076428Y-19125476D01*
X16057381Y-19115952D01*
X16047857Y-19106429D01*
X16038333Y-19087381D01*
X16028809Y-19049286D01*
X16028809Y-19001667D01*
X16038333Y-18963571D01*
X16047857Y-18944524D01*
X16057381Y-18935000D01*
X16076428Y-18925476D01*
X16266905Y-18925476D02*
X16285952Y-18925476D01*
X16305000Y-18935000D01*
X16314524Y-18944524D01*
X16324048Y-18963571D01*
X16333571Y-19001667D01*
X16333571Y-19049286D01*
X16324048Y-19087381D01*
X16314524Y-19106429D01*
X16305000Y-19115952D01*
X16285952Y-19125476D01*
X16266905Y-19125476D01*
X16247857Y-19115952D01*
X16238333Y-19106429D01*
X16228809Y-19087381D01*
X16219286Y-19049286D01*
X16219286Y-19001667D01*
X16228809Y-18963571D01*
X16238333Y-18944524D01*
X16247857Y-18935000D01*
X16266905Y-18925476D01*
X16457381Y-18925476D02*
X16476428Y-18925476D01*
X16495476Y-18935000D01*
X16505000Y-18944524D01*
X16514524Y-18963571D01*
X16524048Y-19001667D01*
X16524048Y-19049286D01*
X16514524Y-19087381D01*
X16505000Y-19106429D01*
X16495476Y-19115952D01*
X16476428Y-19125476D01*
X16457381Y-19125476D01*
X16438333Y-19115952D01*
X16428809Y-19106429D01*
X16419286Y-19087381D01*
X16409762Y-19049286D01*
X16409762Y-19001667D01*
X16419286Y-18963571D01*
X16428809Y-18944524D01*
X16438333Y-18935000D01*
X16457381Y-18925476D01*
X16609762Y-19125476D02*
X16609762Y-18992143D01*
X16609762Y-19011190D02*
X16619286Y-19001667D01*
X16638333Y-18992143D01*
X16666905Y-18992143D01*
X16685952Y-19001667D01*
X16695476Y-19020714D01*
X16695476Y-19125476D01*
X16695476Y-19020714D02*
X16705000Y-19001667D01*
X16724048Y-18992143D01*
X16752619Y-18992143D01*
X16771667Y-19001667D01*
X16781190Y-19020714D01*
X16781190Y-19125476D01*
X16876429Y-19125476D02*
X16876429Y-18992143D01*
X16876429Y-19011190D02*
X16885952Y-19001667D01*
X16905000Y-18992143D01*
X16933571Y-18992143D01*
X16952619Y-19001667D01*
X16962143Y-19020714D01*
X16962143Y-19125476D01*
X16962143Y-19020714D02*
X16971667Y-19001667D01*
X16990714Y-18992143D01*
X17019286Y-18992143D01*
X17038333Y-19001667D01*
X17047857Y-19020714D01*
X17047857Y-19125476D01*
X17438333Y-18915952D02*
X17266905Y-19173095D01*
X17695476Y-18925476D02*
X17714524Y-18925476D01*
X17733571Y-18935000D01*
X17743095Y-18944524D01*
X17752619Y-18963571D01*
X17762143Y-19001667D01*
X17762143Y-19049286D01*
X17752619Y-19087381D01*
X17743095Y-19106429D01*
X17733571Y-19115952D01*
X17714524Y-19125476D01*
X17695476Y-19125476D01*
X17676429Y-19115952D01*
X17666905Y-19106429D01*
X17657381Y-19087381D01*
X17647857Y-19049286D01*
X17647857Y-19001667D01*
X17657381Y-18963571D01*
X17666905Y-18944524D01*
X17676429Y-18935000D01*
X17695476Y-18925476D01*
X17847857Y-19106429D02*
X17857381Y-19115952D01*
X17847857Y-19125476D01*
X17838333Y-19115952D01*
X17847857Y-19106429D01*
X17847857Y-19125476D01*
X18047857Y-19125476D02*
X17933571Y-19125476D01*
X17990714Y-19125476D02*
X17990714Y-18925476D01*
X17971667Y-18954048D01*
X17952619Y-18973095D01*
X17933571Y-18982619D01*
X18238333Y-19125476D02*
X18124048Y-19125476D01*
X18181190Y-19125476D02*
X18181190Y-18925476D01*
X18162143Y-18954048D01*
X18143095Y-18973095D01*
X18124048Y-18982619D01*
X18352619Y-19011190D02*
X18333571Y-19001667D01*
X18324048Y-18992143D01*
X18314524Y-18973095D01*
X18314524Y-18963571D01*
X18324048Y-18944524D01*
X18333571Y-18935000D01*
X18352619Y-18925476D01*
X18390714Y-18925476D01*
X18409762Y-18935000D01*
X18419286Y-18944524D01*
X18428810Y-18963571D01*
X18428810Y-18973095D01*
X18419286Y-18992143D01*
X18409762Y-19001667D01*
X18390714Y-19011190D01*
X18352619Y-19011190D01*
X18333571Y-19020714D01*
X18324048Y-19030238D01*
X18314524Y-19049286D01*
X18314524Y-19087381D01*
X18324048Y-19106429D01*
X18333571Y-19115952D01*
X18352619Y-19125476D01*
X18390714Y-19125476D01*
X18409762Y-19115952D01*
X18419286Y-19106429D01*
X18428810Y-19087381D01*
X18428810Y-19049286D01*
X18419286Y-19030238D01*
X18409762Y-19020714D01*
X18390714Y-19011190D01*
X18619286Y-19125476D02*
X18505000Y-19125476D01*
X18562143Y-19125476D02*
X18562143Y-18925476D01*
X18543095Y-18954048D01*
X18524048Y-18973095D01*
X18505000Y-18982619D01*
X18695476Y-18925476D02*
X18695476Y-18963571D01*
X18771667Y-18925476D02*
X18771667Y-18963571D01*
X19066905Y-19201667D02*
X19057381Y-19192143D01*
X19038333Y-19163571D01*
X19028810Y-19144524D01*
X19019286Y-19115952D01*
X19009762Y-19068333D01*
X19009762Y-19030238D01*
X19019286Y-18982619D01*
X19028810Y-18954048D01*
X19038333Y-18935000D01*
X19057381Y-18906429D01*
X19066905Y-18896905D01*
X19247857Y-19125476D02*
X19133571Y-19125476D01*
X19190714Y-19125476D02*
X19190714Y-18925476D01*
X19171667Y-18954048D01*
X19152619Y-18973095D01*
X19133571Y-18982619D01*
X19485952Y-19125476D02*
X19485952Y-18925476D01*
X19571667Y-19125476D02*
X19571667Y-19020714D01*
X19562143Y-19001667D01*
X19543095Y-18992143D01*
X19514524Y-18992143D01*
X19495476Y-19001667D01*
X19485952Y-19011190D01*
X19695476Y-19125476D02*
X19676429Y-19115952D01*
X19666905Y-19106429D01*
X19657381Y-19087381D01*
X19657381Y-19030238D01*
X19666905Y-19011190D01*
X19676429Y-19001667D01*
X19695476Y-18992143D01*
X19724048Y-18992143D01*
X19743095Y-19001667D01*
X19752619Y-19011190D01*
X19762143Y-19030238D01*
X19762143Y-19087381D01*
X19752619Y-19106429D01*
X19743095Y-19115952D01*
X19724048Y-19125476D01*
X19695476Y-19125476D01*
X19876429Y-19125476D02*
X19857381Y-19115952D01*
X19847857Y-19096905D01*
X19847857Y-18925476D01*
X20028810Y-19115952D02*
X20009762Y-19125476D01*
X19971667Y-19125476D01*
X19952619Y-19115952D01*
X19943095Y-19096905D01*
X19943095Y-19020714D01*
X19952619Y-19001667D01*
X19971667Y-18992143D01*
X20009762Y-18992143D01*
X20028810Y-19001667D01*
X20038333Y-19020714D01*
X20038333Y-19039762D01*
X19943095Y-19058810D01*
X20105000Y-19201667D02*
X20114524Y-19192143D01*
X20133571Y-19163571D01*
X20143095Y-19144524D01*
X20152619Y-19115952D01*
X20162143Y-19068333D01*
X20162143Y-19030238D01*
X20152619Y-18982619D01*
X20143095Y-18954048D01*
X20133571Y-18935000D01*
X20114524Y-18906429D01*
X20105000Y-18896905D01*
X15465711Y-19425711D02*
X15465711Y-19284289D01*
X15324289Y-19284289D01*
X15324289Y-19425711D01*
X15465711Y-19425711D01*
X15838333Y-19312143D02*
X15838333Y-19445476D01*
X15790714Y-19235952D02*
X15743095Y-19378810D01*
X15866905Y-19378810D01*
X15943095Y-19426429D02*
X15952619Y-19435952D01*
X15943095Y-19445476D01*
X15933571Y-19435952D01*
X15943095Y-19426429D01*
X15943095Y-19445476D01*
X16076428Y-19245476D02*
X16095476Y-19245476D01*
X16114524Y-19255000D01*
X16124048Y-19264524D01*
X16133571Y-19283571D01*
X16143095Y-19321667D01*
X16143095Y-19369286D01*
X16133571Y-19407381D01*
X16124048Y-19426429D01*
X16114524Y-19435952D01*
X16095476Y-19445476D01*
X16076428Y-19445476D01*
X16057381Y-19435952D01*
X16047857Y-19426429D01*
X16038333Y-19407381D01*
X16028809Y-19369286D01*
X16028809Y-19321667D01*
X16038333Y-19283571D01*
X16047857Y-19264524D01*
X16057381Y-19255000D01*
X16076428Y-19245476D01*
X16266905Y-19245476D02*
X16285952Y-19245476D01*
X16305000Y-19255000D01*
X16314524Y-19264524D01*
X16324048Y-19283571D01*
X16333571Y-19321667D01*
X16333571Y-19369286D01*
X16324048Y-19407381D01*
X16314524Y-19426429D01*
X16305000Y-19435952D01*
X16285952Y-19445476D01*
X16266905Y-19445476D01*
X16247857Y-19435952D01*
X16238333Y-19426429D01*
X16228809Y-19407381D01*
X16219286Y-19369286D01*
X16219286Y-19321667D01*
X16228809Y-19283571D01*
X16238333Y-19264524D01*
X16247857Y-19255000D01*
X16266905Y-19245476D01*
X16457381Y-19245476D02*
X16476428Y-19245476D01*
X16495476Y-19255000D01*
X16505000Y-19264524D01*
X16514524Y-19283571D01*
X16524048Y-19321667D01*
X16524048Y-19369286D01*
X16514524Y-19407381D01*
X16505000Y-19426429D01*
X16495476Y-19435952D01*
X16476428Y-19445476D01*
X16457381Y-19445476D01*
X16438333Y-19435952D01*
X16428809Y-19426429D01*
X16419286Y-19407381D01*
X16409762Y-19369286D01*
X16409762Y-19321667D01*
X16419286Y-19283571D01*
X16428809Y-19264524D01*
X16438333Y-19255000D01*
X16457381Y-19245476D01*
X16609762Y-19445476D02*
X16609762Y-19312143D01*
X16609762Y-19331190D02*
X16619286Y-19321667D01*
X16638333Y-19312143D01*
X16666905Y-19312143D01*
X16685952Y-19321667D01*
X16695476Y-19340714D01*
X16695476Y-19445476D01*
X16695476Y-19340714D02*
X16705000Y-19321667D01*
X16724048Y-19312143D01*
X16752619Y-19312143D01*
X16771667Y-19321667D01*
X16781190Y-19340714D01*
X16781190Y-19445476D01*
X16876429Y-19445476D02*
X16876429Y-19312143D01*
X16876429Y-19331190D02*
X16885952Y-19321667D01*
X16905000Y-19312143D01*
X16933571Y-19312143D01*
X16952619Y-19321667D01*
X16962143Y-19340714D01*
X16962143Y-19445476D01*
X16962143Y-19340714D02*
X16971667Y-19321667D01*
X16990714Y-19312143D01*
X17019286Y-19312143D01*
X17038333Y-19321667D01*
X17047857Y-19340714D01*
X17047857Y-19445476D01*
X17438333Y-19235952D02*
X17266905Y-19493095D01*
X17695476Y-19245476D02*
X17714524Y-19245476D01*
X17733571Y-19255000D01*
X17743095Y-19264524D01*
X17752619Y-19283571D01*
X17762143Y-19321667D01*
X17762143Y-19369286D01*
X17752619Y-19407381D01*
X17743095Y-19426429D01*
X17733571Y-19435952D01*
X17714524Y-19445476D01*
X17695476Y-19445476D01*
X17676429Y-19435952D01*
X17666905Y-19426429D01*
X17657381Y-19407381D01*
X17647857Y-19369286D01*
X17647857Y-19321667D01*
X17657381Y-19283571D01*
X17666905Y-19264524D01*
X17676429Y-19255000D01*
X17695476Y-19245476D01*
X17847857Y-19426429D02*
X17857381Y-19435952D01*
X17847857Y-19445476D01*
X17838333Y-19435952D01*
X17847857Y-19426429D01*
X17847857Y-19445476D01*
X18047857Y-19445476D02*
X17933571Y-19445476D01*
X17990714Y-19445476D02*
X17990714Y-19245476D01*
X17971667Y-19274048D01*
X17952619Y-19293095D01*
X17933571Y-19302619D01*
X18228810Y-19245476D02*
X18133571Y-19245476D01*
X18124048Y-19340714D01*
X18133571Y-19331190D01*
X18152619Y-19321667D01*
X18200238Y-19321667D01*
X18219286Y-19331190D01*
X18228810Y-19340714D01*
X18238333Y-19359762D01*
X18238333Y-19407381D01*
X18228810Y-19426429D01*
X18219286Y-19435952D01*
X18200238Y-19445476D01*
X18152619Y-19445476D01*
X18133571Y-19435952D01*
X18124048Y-19426429D01*
X18305000Y-19245476D02*
X18438333Y-19245476D01*
X18352619Y-19445476D01*
X18609762Y-19245476D02*
X18514524Y-19245476D01*
X18505000Y-19340714D01*
X18514524Y-19331190D01*
X18533571Y-19321667D01*
X18581190Y-19321667D01*
X18600238Y-19331190D01*
X18609762Y-19340714D01*
X18619286Y-19359762D01*
X18619286Y-19407381D01*
X18609762Y-19426429D01*
X18600238Y-19435952D01*
X18581190Y-19445476D01*
X18533571Y-19445476D01*
X18514524Y-19435952D01*
X18505000Y-19426429D01*
X18695476Y-19245476D02*
X18695476Y-19283571D01*
X18771667Y-19245476D02*
X18771667Y-19283571D01*
X19066905Y-19521667D02*
X19057381Y-19512143D01*
X19038333Y-19483571D01*
X19028810Y-19464524D01*
X19019286Y-19435952D01*
X19009762Y-19388333D01*
X19009762Y-19350238D01*
X19019286Y-19302619D01*
X19028810Y-19274048D01*
X19038333Y-19255000D01*
X19057381Y-19226429D01*
X19066905Y-19216905D01*
X19247857Y-19445476D02*
X19133571Y-19445476D01*
X19190714Y-19445476D02*
X19190714Y-19245476D01*
X19171667Y-19274048D01*
X19152619Y-19293095D01*
X19133571Y-19302619D01*
X19485952Y-19445476D02*
X19485952Y-19245476D01*
X19571667Y-19445476D02*
X19571667Y-19340714D01*
X19562143Y-19321667D01*
X19543095Y-19312143D01*
X19514524Y-19312143D01*
X19495476Y-19321667D01*
X19485952Y-19331190D01*
X19695476Y-19445476D02*
X19676429Y-19435952D01*
X19666905Y-19426429D01*
X19657381Y-19407381D01*
X19657381Y-19350238D01*
X19666905Y-19331190D01*
X19676429Y-19321667D01*
X19695476Y-19312143D01*
X19724048Y-19312143D01*
X19743095Y-19321667D01*
X19752619Y-19331190D01*
X19762143Y-19350238D01*
X19762143Y-19407381D01*
X19752619Y-19426429D01*
X19743095Y-19435952D01*
X19724048Y-19445476D01*
X19695476Y-19445476D01*
X19876429Y-19445476D02*
X19857381Y-19435952D01*
X19847857Y-19416905D01*
X19847857Y-19245476D01*
X20028810Y-19435952D02*
X20009762Y-19445476D01*
X19971667Y-19445476D01*
X19952619Y-19435952D01*
X19943095Y-19416905D01*
X19943095Y-19340714D01*
X19952619Y-19321667D01*
X19971667Y-19312143D01*
X20009762Y-19312143D01*
X20028810Y-19321667D01*
X20038333Y-19340714D01*
X20038333Y-19359762D01*
X19943095Y-19378810D01*
X20105000Y-19521667D02*
X20114524Y-19512143D01*
X20133571Y-19483571D01*
X20143095Y-19464524D01*
X20152619Y-19435952D01*
X20162143Y-19388333D01*
X20162143Y-19350238D01*
X20152619Y-19302619D01*
X20143095Y-19274048D01*
X20133571Y-19255000D01*
X20114524Y-19226429D01*
X20105000Y-19216905D01*
X15395000Y-19775000D02*
X15495000Y-19675000D01*
X15395000Y-19575000D01*
X15295000Y-19675000D01*
X15395000Y-19775000D01*
X15847857Y-19565476D02*
X15752619Y-19565476D01*
X15743095Y-19660714D01*
X15752619Y-19651190D01*
X15771667Y-19641667D01*
X15819286Y-19641667D01*
X15838333Y-19651190D01*
X15847857Y-19660714D01*
X15857381Y-19679762D01*
X15857381Y-19727381D01*
X15847857Y-19746429D01*
X15838333Y-19755952D01*
X15819286Y-19765476D01*
X15771667Y-19765476D01*
X15752619Y-19755952D01*
X15743095Y-19746429D01*
X15943095Y-19746429D02*
X15952619Y-19755952D01*
X15943095Y-19765476D01*
X15933571Y-19755952D01*
X15943095Y-19746429D01*
X15943095Y-19765476D01*
X16076428Y-19565476D02*
X16095476Y-19565476D01*
X16114524Y-19575000D01*
X16124048Y-19584524D01*
X16133571Y-19603571D01*
X16143095Y-19641667D01*
X16143095Y-19689286D01*
X16133571Y-19727381D01*
X16124048Y-19746429D01*
X16114524Y-19755952D01*
X16095476Y-19765476D01*
X16076428Y-19765476D01*
X16057381Y-19755952D01*
X16047857Y-19746429D01*
X16038333Y-19727381D01*
X16028809Y-19689286D01*
X16028809Y-19641667D01*
X16038333Y-19603571D01*
X16047857Y-19584524D01*
X16057381Y-19575000D01*
X16076428Y-19565476D01*
X16266905Y-19565476D02*
X16285952Y-19565476D01*
X16305000Y-19575000D01*
X16314524Y-19584524D01*
X16324048Y-19603571D01*
X16333571Y-19641667D01*
X16333571Y-19689286D01*
X16324048Y-19727381D01*
X16314524Y-19746429D01*
X16305000Y-19755952D01*
X16285952Y-19765476D01*
X16266905Y-19765476D01*
X16247857Y-19755952D01*
X16238333Y-19746429D01*
X16228809Y-19727381D01*
X16219286Y-19689286D01*
X16219286Y-19641667D01*
X16228809Y-19603571D01*
X16238333Y-19584524D01*
X16247857Y-19575000D01*
X16266905Y-19565476D01*
X16457381Y-19565476D02*
X16476428Y-19565476D01*
X16495476Y-19575000D01*
X16505000Y-19584524D01*
X16514524Y-19603571D01*
X16524048Y-19641667D01*
X16524048Y-19689286D01*
X16514524Y-19727381D01*
X16505000Y-19746429D01*
X16495476Y-19755952D01*
X16476428Y-19765476D01*
X16457381Y-19765476D01*
X16438333Y-19755952D01*
X16428809Y-19746429D01*
X16419286Y-19727381D01*
X16409762Y-19689286D01*
X16409762Y-19641667D01*
X16419286Y-19603571D01*
X16428809Y-19584524D01*
X16438333Y-19575000D01*
X16457381Y-19565476D01*
X16609762Y-19765476D02*
X16609762Y-19632143D01*
X16609762Y-19651190D02*
X16619286Y-19641667D01*
X16638333Y-19632143D01*
X16666905Y-19632143D01*
X16685952Y-19641667D01*
X16695476Y-19660714D01*
X16695476Y-19765476D01*
X16695476Y-19660714D02*
X16705000Y-19641667D01*
X16724048Y-19632143D01*
X16752619Y-19632143D01*
X16771667Y-19641667D01*
X16781190Y-19660714D01*
X16781190Y-19765476D01*
X16876429Y-19765476D02*
X16876429Y-19632143D01*
X16876429Y-19651190D02*
X16885952Y-19641667D01*
X16905000Y-19632143D01*
X16933571Y-19632143D01*
X16952619Y-19641667D01*
X16962143Y-19660714D01*
X16962143Y-19765476D01*
X16962143Y-19660714D02*
X16971667Y-19641667D01*
X16990714Y-19632143D01*
X17019286Y-19632143D01*
X17038333Y-19641667D01*
X17047857Y-19660714D01*
X17047857Y-19765476D01*
X17438333Y-19555952D02*
X17266905Y-19813095D01*
X17695476Y-19565476D02*
X17714524Y-19565476D01*
X17733571Y-19575000D01*
X17743095Y-19584524D01*
X17752619Y-19603571D01*
X17762143Y-19641667D01*
X17762143Y-19689286D01*
X17752619Y-19727381D01*
X17743095Y-19746429D01*
X17733571Y-19755952D01*
X17714524Y-19765476D01*
X17695476Y-19765476D01*
X17676429Y-19755952D01*
X17666905Y-19746429D01*
X17657381Y-19727381D01*
X17647857Y-19689286D01*
X17647857Y-19641667D01*
X17657381Y-19603571D01*
X17666905Y-19584524D01*
X17676429Y-19575000D01*
X17695476Y-19565476D01*
X17847857Y-19746429D02*
X17857381Y-19755952D01*
X17847857Y-19765476D01*
X17838333Y-19755952D01*
X17847857Y-19746429D01*
X17847857Y-19765476D01*
X18047857Y-19765476D02*
X17933571Y-19765476D01*
X17990714Y-19765476D02*
X17990714Y-19565476D01*
X17971667Y-19594048D01*
X17952619Y-19613095D01*
X17933571Y-19622619D01*
X18143095Y-19765476D02*
X18181190Y-19765476D01*
X18200238Y-19755952D01*
X18209762Y-19746429D01*
X18228810Y-19717857D01*
X18238333Y-19679762D01*
X18238333Y-19603571D01*
X18228810Y-19584524D01*
X18219286Y-19575000D01*
X18200238Y-19565476D01*
X18162143Y-19565476D01*
X18143095Y-19575000D01*
X18133571Y-19584524D01*
X18124048Y-19603571D01*
X18124048Y-19651190D01*
X18133571Y-19670238D01*
X18143095Y-19679762D01*
X18162143Y-19689286D01*
X18200238Y-19689286D01*
X18219286Y-19679762D01*
X18228810Y-19670238D01*
X18238333Y-19651190D01*
X18409762Y-19565476D02*
X18371667Y-19565476D01*
X18352619Y-19575000D01*
X18343095Y-19584524D01*
X18324048Y-19613095D01*
X18314524Y-19651190D01*
X18314524Y-19727381D01*
X18324048Y-19746429D01*
X18333571Y-19755952D01*
X18352619Y-19765476D01*
X18390714Y-19765476D01*
X18409762Y-19755952D01*
X18419286Y-19746429D01*
X18428810Y-19727381D01*
X18428810Y-19679762D01*
X18419286Y-19660714D01*
X18409762Y-19651190D01*
X18390714Y-19641667D01*
X18352619Y-19641667D01*
X18333571Y-19651190D01*
X18324048Y-19660714D01*
X18314524Y-19679762D01*
X18524048Y-19765476D02*
X18562143Y-19765476D01*
X18581190Y-19755952D01*
X18590714Y-19746429D01*
X18609762Y-19717857D01*
X18619286Y-19679762D01*
X18619286Y-19603571D01*
X18609762Y-19584524D01*
X18600238Y-19575000D01*
X18581190Y-19565476D01*
X18543095Y-19565476D01*
X18524048Y-19575000D01*
X18514524Y-19584524D01*
X18505000Y-19603571D01*
X18505000Y-19651190D01*
X18514524Y-19670238D01*
X18524048Y-19679762D01*
X18543095Y-19689286D01*
X18581190Y-19689286D01*
X18600238Y-19679762D01*
X18609762Y-19670238D01*
X18619286Y-19651190D01*
X18695476Y-19565476D02*
X18695476Y-19603571D01*
X18771667Y-19565476D02*
X18771667Y-19603571D01*
X19066905Y-19841667D02*
X19057381Y-19832143D01*
X19038333Y-19803571D01*
X19028810Y-19784524D01*
X19019286Y-19755952D01*
X19009762Y-19708333D01*
X19009762Y-19670238D01*
X19019286Y-19622619D01*
X19028810Y-19594048D01*
X19038333Y-19575000D01*
X19057381Y-19546429D01*
X19066905Y-19536905D01*
X19247857Y-19765476D02*
X19133571Y-19765476D01*
X19190714Y-19765476D02*
X19190714Y-19565476D01*
X19171667Y-19594048D01*
X19152619Y-19613095D01*
X19133571Y-19622619D01*
X19485952Y-19765476D02*
X19485952Y-19565476D01*
X19571667Y-19765476D02*
X19571667Y-19660714D01*
X19562143Y-19641667D01*
X19543095Y-19632143D01*
X19514524Y-19632143D01*
X19495476Y-19641667D01*
X19485952Y-19651190D01*
X19695476Y-19765476D02*
X19676429Y-19755952D01*
X19666905Y-19746429D01*
X19657381Y-19727381D01*
X19657381Y-19670238D01*
X19666905Y-19651190D01*
X19676429Y-19641667D01*
X19695476Y-19632143D01*
X19724048Y-19632143D01*
X19743095Y-19641667D01*
X19752619Y-19651190D01*
X19762143Y-19670238D01*
X19762143Y-19727381D01*
X19752619Y-19746429D01*
X19743095Y-19755952D01*
X19724048Y-19765476D01*
X19695476Y-19765476D01*
X19876429Y-19765476D02*
X19857381Y-19755952D01*
X19847857Y-19736905D01*
X19847857Y-19565476D01*
X20028810Y-19755952D02*
X20009762Y-19765476D01*
X19971667Y-19765476D01*
X19952619Y-19755952D01*
X19943095Y-19736905D01*
X19943095Y-19660714D01*
X19952619Y-19641667D01*
X19971667Y-19632143D01*
X20009762Y-19632143D01*
X20028810Y-19641667D01*
X20038333Y-19660714D01*
X20038333Y-19679762D01*
X19943095Y-19698810D01*
X20105000Y-19841667D02*
X20114524Y-19832143D01*
X20133571Y-19803571D01*
X20143095Y-19784524D01*
X20152619Y-19755952D01*
X20162143Y-19708333D01*
X20162143Y-19670238D01*
X20152619Y-19622619D01*
X20143095Y-19594048D01*
X20133571Y-19575000D01*
X20114524Y-19546429D01*
X20105000Y-19536905D01*
X15295000Y-19895000D02*
X15495000Y-20095000D01*
X15495000Y-19895000D02*
X15295000Y-20095000D01*
X15495000Y-19995000D02*
G75*
G03*
X15495000Y-19995000I-100000J0D01*
G01*
X15838333Y-19885476D02*
X15800238Y-19885476D01*
X15781190Y-19895000D01*
X15771667Y-19904524D01*
X15752619Y-19933095D01*
X15743095Y-19971190D01*
X15743095Y-20047381D01*
X15752619Y-20066429D01*
X15762143Y-20075952D01*
X15781190Y-20085476D01*
X15819286Y-20085476D01*
X15838333Y-20075952D01*
X15847857Y-20066429D01*
X15857381Y-20047381D01*
X15857381Y-19999762D01*
X15847857Y-19980714D01*
X15838333Y-19971190D01*
X15819286Y-19961667D01*
X15781190Y-19961667D01*
X15762143Y-19971190D01*
X15752619Y-19980714D01*
X15743095Y-19999762D01*
X15943095Y-20066429D02*
X15952619Y-20075952D01*
X15943095Y-20085476D01*
X15933571Y-20075952D01*
X15943095Y-20066429D01*
X15943095Y-20085476D01*
X16076428Y-19885476D02*
X16095476Y-19885476D01*
X16114524Y-19895000D01*
X16124048Y-19904524D01*
X16133571Y-19923571D01*
X16143095Y-19961667D01*
X16143095Y-20009286D01*
X16133571Y-20047381D01*
X16124048Y-20066429D01*
X16114524Y-20075952D01*
X16095476Y-20085476D01*
X16076428Y-20085476D01*
X16057381Y-20075952D01*
X16047857Y-20066429D01*
X16038333Y-20047381D01*
X16028809Y-20009286D01*
X16028809Y-19961667D01*
X16038333Y-19923571D01*
X16047857Y-19904524D01*
X16057381Y-19895000D01*
X16076428Y-19885476D01*
X16266905Y-19885476D02*
X16285952Y-19885476D01*
X16305000Y-19895000D01*
X16314524Y-19904524D01*
X16324048Y-19923571D01*
X16333571Y-19961667D01*
X16333571Y-20009286D01*
X16324048Y-20047381D01*
X16314524Y-20066429D01*
X16305000Y-20075952D01*
X16285952Y-20085476D01*
X16266905Y-20085476D01*
X16247857Y-20075952D01*
X16238333Y-20066429D01*
X16228809Y-20047381D01*
X16219286Y-20009286D01*
X16219286Y-19961667D01*
X16228809Y-19923571D01*
X16238333Y-19904524D01*
X16247857Y-19895000D01*
X16266905Y-19885476D01*
X16457381Y-19885476D02*
X16476428Y-19885476D01*
X16495476Y-19895000D01*
X16505000Y-19904524D01*
X16514524Y-19923571D01*
X16524048Y-19961667D01*
X16524048Y-20009286D01*
X16514524Y-20047381D01*
X16505000Y-20066429D01*
X16495476Y-20075952D01*
X16476428Y-20085476D01*
X16457381Y-20085476D01*
X16438333Y-20075952D01*
X16428809Y-20066429D01*
X16419286Y-20047381D01*
X16409762Y-20009286D01*
X16409762Y-19961667D01*
X16419286Y-19923571D01*
X16428809Y-19904524D01*
X16438333Y-19895000D01*
X16457381Y-19885476D01*
X16609762Y-20085476D02*
X16609762Y-19952143D01*
X16609762Y-19971190D02*
X16619286Y-19961667D01*
X16638333Y-19952143D01*
X16666905Y-19952143D01*
X16685952Y-19961667D01*
X16695476Y-19980714D01*
X16695476Y-20085476D01*
X16695476Y-19980714D02*
X16705000Y-19961667D01*
X16724048Y-19952143D01*
X16752619Y-19952143D01*
X16771667Y-19961667D01*
X16781190Y-19980714D01*
X16781190Y-20085476D01*
X16876429Y-20085476D02*
X16876429Y-19952143D01*
X16876429Y-19971190D02*
X16885952Y-19961667D01*
X16905000Y-19952143D01*
X16933571Y-19952143D01*
X16952619Y-19961667D01*
X16962143Y-19980714D01*
X16962143Y-20085476D01*
X16962143Y-19980714D02*
X16971667Y-19961667D01*
X16990714Y-19952143D01*
X17019286Y-19952143D01*
X17038333Y-19961667D01*
X17047857Y-19980714D01*
X17047857Y-20085476D01*
X17438333Y-19875952D02*
X17266905Y-20133095D01*
X17695476Y-19885476D02*
X17714524Y-19885476D01*
X17733571Y-19895000D01*
X17743095Y-19904524D01*
X17752619Y-19923571D01*
X17762143Y-19961667D01*
X17762143Y-20009286D01*
X17752619Y-20047381D01*
X17743095Y-20066429D01*
X17733571Y-20075952D01*
X17714524Y-20085476D01*
X17695476Y-20085476D01*
X17676429Y-20075952D01*
X17666905Y-20066429D01*
X17657381Y-20047381D01*
X17647857Y-20009286D01*
X17647857Y-19961667D01*
X17657381Y-19923571D01*
X17666905Y-19904524D01*
X17676429Y-19895000D01*
X17695476Y-19885476D01*
X17847857Y-20066429D02*
X17857381Y-20075952D01*
X17847857Y-20085476D01*
X17838333Y-20075952D01*
X17847857Y-20066429D01*
X17847857Y-20085476D01*
X17933571Y-19904524D02*
X17943095Y-19895000D01*
X17962143Y-19885476D01*
X18009762Y-19885476D01*
X18028810Y-19895000D01*
X18038333Y-19904524D01*
X18047857Y-19923571D01*
X18047857Y-19942619D01*
X18038333Y-19971190D01*
X17924048Y-20085476D01*
X18047857Y-20085476D01*
X18114524Y-19885476D02*
X18238333Y-19885476D01*
X18171667Y-19961667D01*
X18200238Y-19961667D01*
X18219286Y-19971190D01*
X18228810Y-19980714D01*
X18238333Y-19999762D01*
X18238333Y-20047381D01*
X18228810Y-20066429D01*
X18219286Y-20075952D01*
X18200238Y-20085476D01*
X18143095Y-20085476D01*
X18124048Y-20075952D01*
X18114524Y-20066429D01*
X18409762Y-19885476D02*
X18371667Y-19885476D01*
X18352619Y-19895000D01*
X18343095Y-19904524D01*
X18324048Y-19933095D01*
X18314524Y-19971190D01*
X18314524Y-20047381D01*
X18324048Y-20066429D01*
X18333571Y-20075952D01*
X18352619Y-20085476D01*
X18390714Y-20085476D01*
X18409762Y-20075952D01*
X18419286Y-20066429D01*
X18428810Y-20047381D01*
X18428810Y-19999762D01*
X18419286Y-19980714D01*
X18409762Y-19971190D01*
X18390714Y-19961667D01*
X18352619Y-19961667D01*
X18333571Y-19971190D01*
X18324048Y-19980714D01*
X18314524Y-19999762D01*
X18505000Y-19904524D02*
X18514524Y-19895000D01*
X18533571Y-19885476D01*
X18581190Y-19885476D01*
X18600238Y-19895000D01*
X18609762Y-19904524D01*
X18619286Y-19923571D01*
X18619286Y-19942619D01*
X18609762Y-19971190D01*
X18495476Y-20085476D01*
X18619286Y-20085476D01*
X18695476Y-19885476D02*
X18695476Y-19923571D01*
X18771667Y-19885476D02*
X18771667Y-19923571D01*
X19066905Y-20161667D02*
X19057381Y-20152143D01*
X19038333Y-20123571D01*
X19028810Y-20104524D01*
X19019286Y-20075952D01*
X19009762Y-20028333D01*
X19009762Y-19990238D01*
X19019286Y-19942619D01*
X19028810Y-19914048D01*
X19038333Y-19895000D01*
X19057381Y-19866429D01*
X19066905Y-19856905D01*
X19247857Y-20085476D02*
X19133571Y-20085476D01*
X19190714Y-20085476D02*
X19190714Y-19885476D01*
X19171667Y-19914048D01*
X19152619Y-19933095D01*
X19133571Y-19942619D01*
X19485952Y-20085476D02*
X19485952Y-19885476D01*
X19571667Y-20085476D02*
X19571667Y-19980714D01*
X19562143Y-19961667D01*
X19543095Y-19952143D01*
X19514524Y-19952143D01*
X19495476Y-19961667D01*
X19485952Y-19971190D01*
X19695476Y-20085476D02*
X19676429Y-20075952D01*
X19666905Y-20066429D01*
X19657381Y-20047381D01*
X19657381Y-19990238D01*
X19666905Y-19971190D01*
X19676429Y-19961667D01*
X19695476Y-19952143D01*
X19724048Y-19952143D01*
X19743095Y-19961667D01*
X19752619Y-19971190D01*
X19762143Y-19990238D01*
X19762143Y-20047381D01*
X19752619Y-20066429D01*
X19743095Y-20075952D01*
X19724048Y-20085476D01*
X19695476Y-20085476D01*
X19876429Y-20085476D02*
X19857381Y-20075952D01*
X19847857Y-20056905D01*
X19847857Y-19885476D01*
X20028810Y-20075952D02*
X20009762Y-20085476D01*
X19971667Y-20085476D01*
X19952619Y-20075952D01*
X19943095Y-20056905D01*
X19943095Y-19980714D01*
X19952619Y-19961667D01*
X19971667Y-19952143D01*
X20009762Y-19952143D01*
X20028810Y-19961667D01*
X20038333Y-19980714D01*
X20038333Y-19999762D01*
X19943095Y-20018810D01*
X20105000Y-20161667D02*
X20114524Y-20152143D01*
X20133571Y-20123571D01*
X20143095Y-20104524D01*
X20152619Y-20075952D01*
X20162143Y-20028333D01*
X20162143Y-19990238D01*
X20152619Y-19942619D01*
X20143095Y-19914048D01*
X20133571Y-19895000D01*
X20114524Y-19866429D01*
X20105000Y-19856905D01*
M02*
