%TF.GenerationSoftware,KiCad,Pcbnew,(6.0.0)*%
%TF.CreationDate,2022-07-14T20:59:07+12:00*%
%TF.ProjectId,BUSINESS_CARD,42555349-4e45-4535-935f-434152442e6b,0A*%
%TF.SameCoordinates,Original*%
%TF.FileFunction,Copper,L1,Top*%
%TF.FilePolarity,Positive*%
%FSLAX46Y46*%
G04 Gerber Fmt 4.6, Leading zero omitted, Abs format (unit mm)*
G04 Created by KiCad (PCBNEW (6.0.0)) date 2022-07-14 20:59:07*
%MOMM*%
%LPD*%
G01*
G04 APERTURE LIST*
%TA.AperFunction,ComponentPad*%
%ADD10C,3.000000*%
%TD*%
%TA.AperFunction,ComponentPad*%
%ADD11C,3.500000*%
%TD*%
%TA.AperFunction,ComponentPad*%
%ADD12C,5.000000*%
%TD*%
%TA.AperFunction,ComponentPad*%
%ADD13C,4.000000*%
%TD*%
%TA.AperFunction,ComponentPad*%
%ADD14C,6.000000*%
%TD*%
%TA.AperFunction,ComponentPad*%
%ADD15C,7.000000*%
%TD*%
G04 APERTURE END LIST*
D10*
%TO.P,H1,1*%
%TO.N,N/C*%
X237786000Y-126714000D03*
%TD*%
D11*
%TO.P,H2,1*%
%TO.N,N/C*%
X237786000Y-133429000D03*
%TD*%
D12*
%TO.P,H4,1*%
%TO.N,N/C*%
X237786000Y-149357000D03*
%TD*%
D13*
%TO.P,H3,1*%
%TO.N,N/C*%
X237786000Y-140893000D03*
%TD*%
D14*
%TO.P,H5,1*%
%TO.N,N/C*%
X237786000Y-159071000D03*
%TD*%
D15*
%TO.P,H6,1*%
%TO.N,N/C*%
X237786000Y-170286000D03*
%TD*%
%TA.AperFunction,NonConductor*%
G36*
X242988227Y-122702518D02*
G01*
X242999642Y-122705143D01*
X243010517Y-122702682D01*
X243021664Y-122702702D01*
X243021664Y-122702863D01*
X243031669Y-122702076D01*
X243103759Y-122706801D01*
X243228475Y-122714975D01*
X243241302Y-122716663D01*
X243459516Y-122760068D01*
X243472016Y-122763418D01*
X243682691Y-122834933D01*
X243694653Y-122839889D01*
X243776954Y-122880475D01*
X243894180Y-122938284D01*
X243905386Y-122944753D01*
X244090385Y-123068365D01*
X244100639Y-123076233D01*
X244267914Y-123222930D01*
X244277069Y-123232085D01*
X244423767Y-123399361D01*
X244431635Y-123409615D01*
X244555247Y-123594614D01*
X244561716Y-123605820D01*
X244660111Y-123805346D01*
X244665067Y-123817309D01*
X244736581Y-124027980D01*
X244739933Y-124040489D01*
X244783336Y-124258691D01*
X244785026Y-124271530D01*
X244797891Y-124467816D01*
X244797101Y-124477628D01*
X244797375Y-124477628D01*
X244797355Y-124488778D01*
X244794857Y-124499642D01*
X244797317Y-124510514D01*
X244797317Y-124510516D01*
X244797559Y-124511583D01*
X244800000Y-124533432D01*
X244800000Y-170252040D01*
X244797482Y-170274227D01*
X244794857Y-170285642D01*
X244797317Y-170296514D01*
X244797308Y-170301702D01*
X244798851Y-170318167D01*
X244782255Y-170782837D01*
X244781751Y-170789886D01*
X244728985Y-171280684D01*
X244727979Y-171287679D01*
X244640336Y-171773453D01*
X244638834Y-171780358D01*
X244516759Y-172258645D01*
X244514768Y-172265426D01*
X244358881Y-172733788D01*
X244356411Y-172740409D01*
X244167510Y-173196459D01*
X244164574Y-173202888D01*
X243943623Y-173644289D01*
X243940236Y-173650492D01*
X243688360Y-174075007D01*
X243684540Y-174080952D01*
X243403011Y-174486431D01*
X243398776Y-174492088D01*
X243089046Y-174876440D01*
X243084425Y-174881773D01*
X242840067Y-175144233D01*
X242748057Y-175243059D01*
X242743066Y-175248050D01*
X242381773Y-175584425D01*
X242376448Y-175589039D01*
X242187493Y-175741309D01*
X241992088Y-175898776D01*
X241986433Y-175903010D01*
X241807195Y-176027457D01*
X241580952Y-176184540D01*
X241575010Y-176188358D01*
X241441036Y-176267849D01*
X241150492Y-176440236D01*
X241144289Y-176443623D01*
X240983198Y-176524260D01*
X240702881Y-176664577D01*
X240696459Y-176667510D01*
X240240409Y-176856411D01*
X240233788Y-176858881D01*
X240038859Y-176923760D01*
X239765418Y-177014770D01*
X239758653Y-177016757D01*
X239280353Y-177138835D01*
X239273457Y-177140335D01*
X238787668Y-177227981D01*
X238780695Y-177228983D01*
X238499016Y-177259267D01*
X238289886Y-177281751D01*
X238282837Y-177282255D01*
X237989056Y-177292748D01*
X237818692Y-177298833D01*
X237803329Y-177297366D01*
X237797221Y-177297355D01*
X237786358Y-177294857D01*
X237775486Y-177297317D01*
X237775484Y-177297317D01*
X237774417Y-177297559D01*
X237752568Y-177300000D01*
X157033960Y-177300000D01*
X157011773Y-177297482D01*
X157000358Y-177294857D01*
X156989483Y-177297318D01*
X156978336Y-177297298D01*
X156978336Y-177297137D01*
X156968331Y-177297924D01*
X156896241Y-177293199D01*
X156771525Y-177285025D01*
X156758698Y-177283337D01*
X156540484Y-177239932D01*
X156527984Y-177236582D01*
X156317308Y-177165067D01*
X156305346Y-177160111D01*
X156284304Y-177149734D01*
X156105820Y-177061716D01*
X156094614Y-177055247D01*
X155909615Y-176931635D01*
X155899361Y-176923767D01*
X155732085Y-176777069D01*
X155722930Y-176767914D01*
X155708997Y-176752027D01*
X155576233Y-176600639D01*
X155568365Y-176590385D01*
X155444753Y-176405386D01*
X155438284Y-176394180D01*
X155380475Y-176276954D01*
X155339889Y-176194653D01*
X155334933Y-176182691D01*
X155263419Y-175972020D01*
X155260067Y-175959511D01*
X155216663Y-175741302D01*
X155214974Y-175728470D01*
X155205691Y-175586827D01*
X155202109Y-175532181D01*
X155202899Y-175522372D01*
X155202625Y-175522372D01*
X155202645Y-175511222D01*
X155205143Y-175500358D01*
X155202683Y-175489486D01*
X155202683Y-175489484D01*
X155202441Y-175488417D01*
X155200000Y-175466568D01*
X155200000Y-170286000D01*
X234080422Y-170286000D01*
X234100722Y-170673338D01*
X234161398Y-171056433D01*
X234261786Y-171431087D01*
X234400786Y-171793194D01*
X234576875Y-172138789D01*
X234578286Y-172140961D01*
X234578289Y-172140967D01*
X234786707Y-172461903D01*
X234786713Y-172461911D01*
X234788124Y-172464084D01*
X235032219Y-172765516D01*
X235306484Y-173039781D01*
X235607916Y-173283876D01*
X235610089Y-173285287D01*
X235610097Y-173285293D01*
X235931033Y-173493711D01*
X235931039Y-173493714D01*
X235933211Y-173495125D01*
X236278806Y-173671214D01*
X236640913Y-173810214D01*
X236643416Y-173810885D01*
X236643417Y-173810885D01*
X237013058Y-173909930D01*
X237013063Y-173909931D01*
X237015567Y-173910602D01*
X237018138Y-173911009D01*
X237018137Y-173911009D01*
X237396096Y-173970872D01*
X237396104Y-173970873D01*
X237398662Y-173971278D01*
X237786000Y-173991578D01*
X238173338Y-173971278D01*
X238175896Y-173970873D01*
X238175904Y-173970872D01*
X238553863Y-173911009D01*
X238553862Y-173911009D01*
X238556433Y-173910602D01*
X238558937Y-173909931D01*
X238558942Y-173909930D01*
X238928583Y-173810885D01*
X238928584Y-173810885D01*
X238931087Y-173810214D01*
X239293194Y-173671214D01*
X239638789Y-173495125D01*
X239640961Y-173493714D01*
X239640967Y-173493711D01*
X239961903Y-173285293D01*
X239961911Y-173285287D01*
X239964084Y-173283876D01*
X240265516Y-173039781D01*
X240539781Y-172765516D01*
X240783876Y-172464084D01*
X240785287Y-172461911D01*
X240785293Y-172461903D01*
X240993711Y-172140967D01*
X240993714Y-172140961D01*
X240995125Y-172138789D01*
X241171214Y-171793194D01*
X241310214Y-171431087D01*
X241410602Y-171056433D01*
X241471278Y-170673338D01*
X241491578Y-170286000D01*
X241471278Y-169898662D01*
X241410602Y-169515567D01*
X241310214Y-169140913D01*
X241171214Y-168778806D01*
X240995125Y-168433211D01*
X240993711Y-168431033D01*
X240785293Y-168110097D01*
X240785287Y-168110089D01*
X240783876Y-168107916D01*
X240539781Y-167806484D01*
X240265516Y-167532219D01*
X239964084Y-167288124D01*
X239961911Y-167286713D01*
X239961903Y-167286707D01*
X239640967Y-167078289D01*
X239640961Y-167078286D01*
X239638789Y-167076875D01*
X239293194Y-166900786D01*
X238931087Y-166761786D01*
X238928583Y-166761115D01*
X238558942Y-166662070D01*
X238558937Y-166662069D01*
X238556433Y-166661398D01*
X238515884Y-166654976D01*
X238175904Y-166601128D01*
X238175896Y-166601127D01*
X238173338Y-166600722D01*
X237786000Y-166580422D01*
X237398662Y-166600722D01*
X237396104Y-166601127D01*
X237396096Y-166601128D01*
X237056116Y-166654976D01*
X237015567Y-166661398D01*
X237013063Y-166662069D01*
X237013058Y-166662070D01*
X236643417Y-166761115D01*
X236640913Y-166761786D01*
X236278806Y-166900786D01*
X235933211Y-167076875D01*
X235931039Y-167078286D01*
X235931033Y-167078289D01*
X235610097Y-167286707D01*
X235610089Y-167286713D01*
X235607916Y-167288124D01*
X235306484Y-167532219D01*
X235032219Y-167806484D01*
X234788124Y-168107916D01*
X234786713Y-168110089D01*
X234786707Y-168110097D01*
X234578289Y-168431033D01*
X234576875Y-168433211D01*
X234400786Y-168778806D01*
X234261786Y-169140913D01*
X234161398Y-169515567D01*
X234100722Y-169898662D01*
X234080422Y-170286000D01*
X155200000Y-170286000D01*
X155200000Y-159026244D01*
X234580769Y-159026244D01*
X234595756Y-159383806D01*
X234596177Y-159386528D01*
X234596178Y-159386534D01*
X234616395Y-159517125D01*
X234650506Y-159737470D01*
X234744337Y-160082827D01*
X234745355Y-160085399D01*
X234745357Y-160085404D01*
X234795414Y-160211833D01*
X234876080Y-160415572D01*
X235044093Y-160731558D01*
X235045655Y-160733839D01*
X235244713Y-161024558D01*
X235244719Y-161024566D01*
X235246281Y-161026847D01*
X235480125Y-161297757D01*
X235742710Y-161540913D01*
X236030763Y-161753284D01*
X236340693Y-161932222D01*
X236473481Y-161990236D01*
X236666114Y-162074396D01*
X236666118Y-162074398D01*
X236668637Y-162075498D01*
X236671263Y-162076311D01*
X236671266Y-162076312D01*
X237007868Y-162180508D01*
X237007877Y-162180510D01*
X237010509Y-162181325D01*
X237362046Y-162248384D01*
X237718868Y-162275840D01*
X237721620Y-162275744D01*
X237721625Y-162275744D01*
X237956591Y-162267538D01*
X238076527Y-162263350D01*
X238430564Y-162211071D01*
X238433233Y-162210366D01*
X238433237Y-162210365D01*
X238773907Y-162120356D01*
X238773910Y-162120355D01*
X238776567Y-162119653D01*
X239110224Y-161990236D01*
X239427375Y-161824433D01*
X239724068Y-161624311D01*
X239726181Y-161622513D01*
X239994501Y-161394155D01*
X239994505Y-161394152D01*
X239996605Y-161392364D01*
X239998490Y-161390357D01*
X239998496Y-161390351D01*
X240239692Y-161133502D01*
X240241588Y-161131483D01*
X240321579Y-161024558D01*
X240454305Y-160847139D01*
X240455965Y-160844920D01*
X240457361Y-160842540D01*
X240457366Y-160842533D01*
X240635663Y-160538631D01*
X240637062Y-160536247D01*
X240782624Y-160209311D01*
X240890835Y-159868186D01*
X240916189Y-159740140D01*
X240959811Y-159519834D01*
X240959812Y-159519827D01*
X240960347Y-159517125D01*
X240990293Y-159160504D01*
X240991543Y-159071000D01*
X240971566Y-158713682D01*
X240911883Y-158360817D01*
X240813239Y-158016804D01*
X240676863Y-157685931D01*
X240504455Y-157372321D01*
X240298163Y-157079884D01*
X240060560Y-156812265D01*
X240058511Y-156810421D01*
X240058507Y-156810416D01*
X239927037Y-156692041D01*
X239794605Y-156572799D01*
X239721251Y-156520283D01*
X239505871Y-156366085D01*
X239505866Y-156366082D01*
X239503616Y-156364471D01*
X239191218Y-156189877D01*
X239188670Y-156188806D01*
X239188662Y-156188802D01*
X238987034Y-156104046D01*
X238861304Y-156051194D01*
X238517989Y-155950151D01*
X238297731Y-155911313D01*
X238168267Y-155888485D01*
X238168262Y-155888484D01*
X238165549Y-155888006D01*
X237808379Y-155865535D01*
X237805618Y-155865670D01*
X237805614Y-155865670D01*
X237499171Y-155880658D01*
X237450930Y-155883017D01*
X237097657Y-155940235D01*
X236752963Y-156036475D01*
X236592989Y-156101109D01*
X236423707Y-156169503D01*
X236423703Y-156169505D01*
X236421146Y-156170538D01*
X236382879Y-156191229D01*
X236108770Y-156339439D01*
X236108761Y-156339444D01*
X236106341Y-156340753D01*
X235812471Y-156544998D01*
X235543199Y-156780727D01*
X235301882Y-157045003D01*
X235091528Y-157334531D01*
X235090161Y-157336938D01*
X235090160Y-157336939D01*
X234916125Y-157643294D01*
X234916121Y-157643301D01*
X234914757Y-157645703D01*
X234913668Y-157648245D01*
X234913664Y-157648252D01*
X234832766Y-157837004D01*
X234773775Y-157974640D01*
X234772979Y-157977275D01*
X234772978Y-157977279D01*
X234761045Y-158016804D01*
X234670337Y-158317242D01*
X234669841Y-158319945D01*
X234669839Y-158319953D01*
X234606233Y-158666518D01*
X234605734Y-158669239D01*
X234580769Y-159026244D01*
X155200000Y-159026244D01*
X155200000Y-149328669D01*
X235080712Y-149328669D01*
X235080860Y-149331643D01*
X235080860Y-149331648D01*
X235082122Y-149357000D01*
X235096902Y-149653879D01*
X235152045Y-149974789D01*
X235245341Y-150286749D01*
X235375439Y-150585242D01*
X235376951Y-150587814D01*
X235376953Y-150587818D01*
X235421076Y-150662873D01*
X235540455Y-150865944D01*
X235737998Y-151124788D01*
X235965208Y-151358025D01*
X235967526Y-151359892D01*
X235967527Y-151359893D01*
X236216461Y-151560399D01*
X236216466Y-151560403D01*
X236218792Y-151562276D01*
X236221322Y-151563854D01*
X236221325Y-151563856D01*
X236359566Y-151650070D01*
X236495078Y-151734583D01*
X236790063Y-151872451D01*
X237099474Y-151973881D01*
X237102401Y-151974463D01*
X237102404Y-151974464D01*
X237415912Y-152036825D01*
X237415919Y-152036826D01*
X237418830Y-152037405D01*
X237421792Y-152037630D01*
X237421797Y-152037631D01*
X237740531Y-152061876D01*
X237740535Y-152061876D01*
X237743505Y-152062102D01*
X237855445Y-152057117D01*
X238065819Y-152047748D01*
X238065827Y-152047747D01*
X238068795Y-152047615D01*
X238389989Y-151994154D01*
X238626683Y-151924716D01*
X238699561Y-151903336D01*
X238699563Y-151903335D01*
X238702434Y-151902493D01*
X238705183Y-151901312D01*
X238998865Y-151775136D01*
X238998868Y-151775134D01*
X239001604Y-151773959D01*
X239283165Y-151610415D01*
X239285537Y-151608624D01*
X239285545Y-151608619D01*
X239540669Y-151416020D01*
X239540670Y-151416019D01*
X239543040Y-151414230D01*
X239777464Y-151188245D01*
X239983040Y-150935733D01*
X240156792Y-150660354D01*
X240296202Y-150366095D01*
X240399251Y-150057218D01*
X240399848Y-150054298D01*
X240463849Y-149741123D01*
X240463850Y-149741114D01*
X240464446Y-149738199D01*
X240471065Y-149656820D01*
X240490701Y-149415409D01*
X240490702Y-149415397D01*
X240490843Y-149413658D01*
X240491436Y-149357000D01*
X240471841Y-149031977D01*
X240413342Y-148711663D01*
X240316784Y-148400696D01*
X240183567Y-148103582D01*
X240015621Y-147824624D01*
X239815377Y-147567863D01*
X239585738Y-147337018D01*
X239474627Y-147249425D01*
X239332374Y-147137281D01*
X239332367Y-147137276D01*
X239330029Y-147135433D01*
X239051954Y-146966029D01*
X239020428Y-146951695D01*
X238758261Y-146832494D01*
X238758257Y-146832493D01*
X238755542Y-146831258D01*
X238445085Y-146733073D01*
X238442155Y-146732522D01*
X238128012Y-146673448D01*
X238128009Y-146673448D01*
X238125081Y-146672897D01*
X237800166Y-146651601D01*
X237797185Y-146651765D01*
X237797178Y-146651765D01*
X237478022Y-146669330D01*
X237478019Y-146669330D01*
X237475045Y-146669494D01*
X237154429Y-146726315D01*
X237151571Y-146727186D01*
X237151567Y-146727187D01*
X237019079Y-146767567D01*
X236842961Y-146821244D01*
X236840235Y-146822449D01*
X236840230Y-146822451D01*
X236547885Y-146951695D01*
X236545153Y-146952903D01*
X236265319Y-147119386D01*
X236007513Y-147318282D01*
X235775469Y-147546710D01*
X235572548Y-147801360D01*
X235401690Y-148078544D01*
X235265369Y-148374247D01*
X235165560Y-148684185D01*
X235164995Y-148687104D01*
X235164995Y-148687105D01*
X235160795Y-148708816D01*
X235103709Y-149003870D01*
X235080712Y-149328669D01*
X155200000Y-149328669D01*
X155200000Y-140893000D01*
X235580778Y-140893000D01*
X235599644Y-141180839D01*
X235655919Y-141463753D01*
X235748641Y-141736902D01*
X235876222Y-141995611D01*
X236036480Y-142235454D01*
X236226673Y-142452327D01*
X236443546Y-142642520D01*
X236683389Y-142802778D01*
X236942098Y-142930359D01*
X237215247Y-143023081D01*
X237498161Y-143079356D01*
X237501383Y-143079567D01*
X237501389Y-143079568D01*
X237782766Y-143098010D01*
X237786000Y-143098222D01*
X237789234Y-143098010D01*
X238070611Y-143079568D01*
X238070617Y-143079567D01*
X238073839Y-143079356D01*
X238356753Y-143023081D01*
X238629902Y-142930359D01*
X238888611Y-142802778D01*
X239128454Y-142642520D01*
X239345327Y-142452327D01*
X239535520Y-142235454D01*
X239695778Y-141995611D01*
X239823359Y-141736902D01*
X239916081Y-141463753D01*
X239972356Y-141180839D01*
X239991222Y-140893000D01*
X239972356Y-140605161D01*
X239916081Y-140322247D01*
X239823359Y-140049098D01*
X239695778Y-139790389D01*
X239535520Y-139550546D01*
X239345327Y-139333673D01*
X239128454Y-139143480D01*
X238888611Y-138983222D01*
X238629902Y-138855641D01*
X238356753Y-138762919D01*
X238073839Y-138706644D01*
X238070617Y-138706433D01*
X238070611Y-138706432D01*
X237789234Y-138687990D01*
X237786000Y-138687778D01*
X237782766Y-138687990D01*
X237501389Y-138706432D01*
X237501383Y-138706433D01*
X237498161Y-138706644D01*
X237215247Y-138762919D01*
X236942098Y-138855641D01*
X236683389Y-138983222D01*
X236443546Y-139143480D01*
X236226673Y-139333673D01*
X236036480Y-139550546D01*
X235876222Y-139790389D01*
X235748641Y-140049098D01*
X235655919Y-140322247D01*
X235599644Y-140605161D01*
X235580778Y-140893000D01*
X155200000Y-140893000D01*
X155200000Y-133367577D01*
X235831483Y-133367577D01*
X235831620Y-133371068D01*
X235831620Y-133371073D01*
X235836378Y-133492154D01*
X235842327Y-133643583D01*
X235891953Y-133915309D01*
X235979370Y-134177331D01*
X236102834Y-134424421D01*
X236259882Y-134651651D01*
X236447380Y-134854485D01*
X236450090Y-134856692D01*
X236450094Y-134856695D01*
X236658878Y-135026671D01*
X236661588Y-135028877D01*
X236898230Y-135171347D01*
X237152585Y-135279053D01*
X237419579Y-135349845D01*
X237423052Y-135350256D01*
X237423057Y-135350257D01*
X237634048Y-135375229D01*
X237693884Y-135382311D01*
X237697373Y-135382229D01*
X237697378Y-135382229D01*
X237823041Y-135379268D01*
X237970027Y-135375804D01*
X238242498Y-135330452D01*
X238245830Y-135329398D01*
X238245835Y-135329397D01*
X238402180Y-135279951D01*
X238505861Y-135247161D01*
X238509019Y-135245645D01*
X238509023Y-135245643D01*
X238751703Y-135129110D01*
X238751709Y-135129107D01*
X238754861Y-135127593D01*
X238984529Y-134974134D01*
X238987137Y-134971798D01*
X238987141Y-134971795D01*
X239187672Y-134792184D01*
X239187675Y-134792181D01*
X239190283Y-134789845D01*
X239368018Y-134578403D01*
X239464050Y-134424421D01*
X239512336Y-134346998D01*
X239512337Y-134346995D01*
X239514188Y-134344028D01*
X239625875Y-134091396D01*
X239700853Y-133825547D01*
X239737623Y-133551786D01*
X239741482Y-133429000D01*
X239737381Y-133371073D01*
X239722220Y-133156963D01*
X239721973Y-133153470D01*
X239663837Y-132883438D01*
X239568233Y-132624291D01*
X239539990Y-132571947D01*
X239438729Y-132384278D01*
X239438728Y-132384276D01*
X239437068Y-132381200D01*
X239401378Y-132332879D01*
X239275038Y-132161830D01*
X239272960Y-132159016D01*
X239079183Y-131962171D01*
X239024238Y-131920238D01*
X238862390Y-131796720D01*
X238862388Y-131796719D01*
X238859604Y-131794594D01*
X238618604Y-131659627D01*
X238615349Y-131658368D01*
X238615341Y-131658364D01*
X238471783Y-131602826D01*
X238360991Y-131559964D01*
X238357585Y-131559174D01*
X238357580Y-131559173D01*
X238190574Y-131520463D01*
X238091905Y-131497593D01*
X237876177Y-131478909D01*
X237820203Y-131474061D01*
X237820202Y-131474061D01*
X237816715Y-131473759D01*
X237698565Y-131480262D01*
X237544412Y-131488745D01*
X237544406Y-131488746D01*
X237540913Y-131488938D01*
X237270001Y-131542825D01*
X237009384Y-131634347D01*
X236872053Y-131705685D01*
X236767369Y-131760064D01*
X236767363Y-131760068D01*
X236764263Y-131761678D01*
X236761415Y-131763713D01*
X236761412Y-131763715D01*
X236542379Y-131920238D01*
X236542376Y-131920241D01*
X236539529Y-131922275D01*
X236536996Y-131924691D01*
X236536994Y-131924693D01*
X236342203Y-132110514D01*
X236342197Y-132110521D01*
X236339665Y-132112936D01*
X236168659Y-132329856D01*
X236029923Y-132568707D01*
X235926226Y-132824723D01*
X235859636Y-133092796D01*
X235859279Y-133096277D01*
X235859279Y-133096279D01*
X235853420Y-133153470D01*
X235831483Y-133367577D01*
X155200000Y-133367577D01*
X155200000Y-126669361D01*
X236081316Y-126669361D01*
X236093443Y-126921820D01*
X236142752Y-127169713D01*
X236228160Y-127407595D01*
X236347792Y-127630240D01*
X236499018Y-127832756D01*
X236678517Y-128010696D01*
X236681476Y-128012866D01*
X236681480Y-128012869D01*
X236788332Y-128091215D01*
X236882346Y-128160149D01*
X237106026Y-128277833D01*
X237109497Y-128279045D01*
X237109499Y-128279046D01*
X237191897Y-128307820D01*
X237344644Y-128361162D01*
X237592958Y-128408306D01*
X237730408Y-128413706D01*
X237841843Y-128418085D01*
X237841846Y-128418085D01*
X237845513Y-128418229D01*
X238096760Y-128390713D01*
X238218971Y-128358538D01*
X238337635Y-128327297D01*
X238337640Y-128327295D01*
X238341181Y-128326363D01*
X238573405Y-128226591D01*
X238576532Y-128224656D01*
X238785205Y-128095526D01*
X238785210Y-128095522D01*
X238788331Y-128093591D01*
X238981238Y-127930283D01*
X239069351Y-127829810D01*
X239145462Y-127743023D01*
X239145466Y-127743018D01*
X239147888Y-127740256D01*
X239284619Y-127527684D01*
X239337257Y-127410833D01*
X239386918Y-127300588D01*
X239388428Y-127297236D01*
X239457034Y-127053976D01*
X239488931Y-126803247D01*
X239491268Y-126714000D01*
X239491084Y-126711527D01*
X239491084Y-126711517D01*
X239472809Y-126465599D01*
X239472808Y-126465593D01*
X239472537Y-126461945D01*
X239416756Y-126215428D01*
X239325150Y-125979863D01*
X239199731Y-125760426D01*
X239043255Y-125561938D01*
X239040582Y-125559424D01*
X239040577Y-125559418D01*
X238861832Y-125391272D01*
X238859160Y-125388758D01*
X238651489Y-125244691D01*
X238606569Y-125222539D01*
X238428107Y-125134531D01*
X238428103Y-125134529D01*
X238424805Y-125132903D01*
X238421303Y-125131782D01*
X238421298Y-125131780D01*
X238276106Y-125085304D01*
X238184087Y-125055849D01*
X238180472Y-125055260D01*
X238180471Y-125055260D01*
X237938241Y-125015810D01*
X237938240Y-125015810D01*
X237934624Y-125015221D01*
X237930961Y-125015173D01*
X237930960Y-125015173D01*
X237808260Y-125013567D01*
X237681896Y-125011913D01*
X237678268Y-125012407D01*
X237678264Y-125012407D01*
X237518698Y-125034123D01*
X237431455Y-125045996D01*
X237188803Y-125116723D01*
X236959270Y-125222539D01*
X236747899Y-125361120D01*
X236559333Y-125529421D01*
X236556986Y-125532243D01*
X236556985Y-125532244D01*
X236400067Y-125720918D01*
X236397715Y-125723746D01*
X236266595Y-125939825D01*
X236168854Y-126172911D01*
X236106639Y-126417883D01*
X236081316Y-126669361D01*
X155200000Y-126669361D01*
X155200000Y-124533960D01*
X155202518Y-124511773D01*
X155202562Y-124511583D01*
X155205143Y-124500358D01*
X155202682Y-124489483D01*
X155202702Y-124478336D01*
X155202863Y-124478336D01*
X155202076Y-124468331D01*
X155214974Y-124271531D01*
X155216664Y-124258691D01*
X155260067Y-124040489D01*
X155263419Y-124027980D01*
X155334933Y-123817309D01*
X155339889Y-123805346D01*
X155438284Y-123605820D01*
X155444753Y-123594614D01*
X155568365Y-123409615D01*
X155576233Y-123399361D01*
X155722931Y-123232085D01*
X155732086Y-123222930D01*
X155899361Y-123076233D01*
X155909615Y-123068365D01*
X156094614Y-122944753D01*
X156105820Y-122938284D01*
X156223046Y-122880475D01*
X156305347Y-122839889D01*
X156317309Y-122834933D01*
X156527984Y-122763418D01*
X156540484Y-122760068D01*
X156758698Y-122716663D01*
X156771523Y-122714975D01*
X156967819Y-122702109D01*
X156977628Y-122702899D01*
X156977628Y-122702625D01*
X156988778Y-122702645D01*
X156999642Y-122705143D01*
X157010514Y-122702683D01*
X157010516Y-122702683D01*
X157011583Y-122702441D01*
X157033432Y-122700000D01*
X242966040Y-122700000D01*
X242988227Y-122702518D01*
G37*
%TD.AperFunction*%
M02*
